<?xml version="1.0" encoding="iso-8859-1"?>
<svg version="1.1" id="Layer_1" xmlns="http://www.w3.org/2000/svg" xmlns:xlink="http://www.w3.org/1999/xlink" x="0px" y="0px"
	 viewBox="0 0 512 350" style="enable-background:new 0 0 312 312;" xml:space="preserve">
<path style="fill:#e8071d;" d="M485.878,97.959H26.122C11.755,97.959,0,109.714,0,124.082v263.837
	c0,14.367,11.755,26.122,26.122,26.122h459.755c14.367,0,26.122-11.755,26.122-26.122V124.082
	C512,109.714,500.245,97.959,485.878,97.959z"/>
<circle style="fill:#0afa1a;" cx="143.673" cy="210.286" r="32.653"/>
<path style="fill:#0a0a0a;" d="M156.735,270.37l-13.061,17.467l-13.061-17.467c-29.808,6.051-52.245,32.404-52.245,63.997H208.98
	C208.98,302.774,186.543,276.421,156.735,270.37z"/>
<g>
	<path style="fill:#0a0a0a;" d="M433.633,203.755H287.347c-7.214,0-13.061-5.848-13.061-13.061c0-7.214,5.848-13.061,13.061-13.061
		h146.286c7.214,0,13.061,5.848,13.061,13.061C446.694,197.908,440.846,203.755,433.633,203.755z"/>
	<path style="fill:#0a0a0a;" d="M433.633,269.061H287.347c-7.214,0-13.061-5.848-13.061-13.061s5.848-13.061,13.061-13.061h146.286
		c7.214,0,13.061,5.848,13.061,13.061S440.846,269.061,433.633,269.061z"/>
	<path style="fill:#0a0a0a;" d="M360.49,334.367h-73.143c-7.214,0-13.061-5.848-13.061-13.061s5.848-13.061,13.061-13.061h73.143
		c7.214,0,13.061,5.848,13.061,13.061S367.704,334.367,360.49,334.367z"/>
</g>
<path style="fill:#0afa1a;" d="M143.673,267.452c-4.473,0-8.841,0.452-13.061,1.309v78.668c0,7.214,5.848,13.061,13.061,13.061
	s13.061-5.847,13.061-13.061v-78.668C152.515,267.904,148.147,267.452,143.673,267.452z"/>
</svg>
